<mxfile host="app.diagrams.net" modified="2021-10-08T11:53:21.124Z" agent="5.0 (Windows NT 10.0; Win64; x64) AppleWebKit/537.36 (KHTML, like Gecko) Chrome/94.0.4606.61 Safari/537.36" etag="F6gIs8Z2OkW346fcR6vx" version="14.9.8" type="github">
  <diagram id="C5RBs43oDa-KdzZeNtuy" name="Page-1">
    <mxGraphModel dx="1422" dy="706" grid="1" gridSize="10" guides="1" tooltips="1" connect="1" arrows="1" fold="1" page="1" pageScale="1" pageWidth="827" pageHeight="1169" math="0" shadow="0">
      <root>
        <mxCell id="WIyWlLk6GJQsqaUBKTNV-0" />
        <mxCell id="WIyWlLk6GJQsqaUBKTNV-1" parent="WIyWlLk6GJQsqaUBKTNV-0" />
        <mxCell id="cZjuI6zAztRCHfJ284af-0" style="edgeStyle=orthogonalEdgeStyle;rounded=0;orthogonalLoop=1;jettySize=auto;html=1;" parent="WIyWlLk6GJQsqaUBKTNV-1" source="cZjuI6zAztRCHfJ284af-1" target="cZjuI6zAztRCHfJ284af-3" edge="1">
          <mxGeometry relative="1" as="geometry" />
        </mxCell>
        <mxCell id="cZjuI6zAztRCHfJ284af-1" value="开始" style="strokeWidth=2;html=1;shape=mxgraph.flowchart.terminator;whiteSpace=wrap;strokeColor=#000000;shadow=0;" parent="WIyWlLk6GJQsqaUBKTNV-1" vertex="1">
          <mxGeometry x="75" y="145" width="70" height="40" as="geometry" />
        </mxCell>
        <mxCell id="cZjuI6zAztRCHfJ284af-2" style="edgeStyle=orthogonalEdgeStyle;rounded=0;orthogonalLoop=1;jettySize=auto;html=1;entryX=0.5;entryY=0;entryDx=0;entryDy=0;entryPerimeter=0;" parent="WIyWlLk6GJQsqaUBKTNV-1" source="cZjuI6zAztRCHfJ284af-3" target="cZjuI6zAztRCHfJ284af-7" edge="1">
          <mxGeometry relative="1" as="geometry" />
        </mxCell>
        <mxCell id="cZjuI6zAztRCHfJ284af-3" value="登录" style="rounded=1;whiteSpace=wrap;html=1;absoluteArcSize=1;arcSize=14;strokeWidth=2;shadow=0;" parent="WIyWlLk6GJQsqaUBKTNV-1" vertex="1">
          <mxGeometry x="80" y="205" width="60" height="40" as="geometry" />
        </mxCell>
        <mxCell id="cZjuI6zAztRCHfJ284af-4" style="edgeStyle=orthogonalEdgeStyle;rounded=0;orthogonalLoop=1;jettySize=auto;html=1;entryX=0;entryY=0.5;entryDx=0;entryDy=0;" parent="WIyWlLk6GJQsqaUBKTNV-1" source="cZjuI6zAztRCHfJ284af-7" target="cZjuI6zAztRCHfJ284af-9" edge="1">
          <mxGeometry relative="1" as="geometry">
            <mxPoint x="180" y="320" as="targetPoint" />
          </mxGeometry>
        </mxCell>
        <mxCell id="cZjuI6zAztRCHfJ284af-5" value="Y" style="edgeLabel;html=1;align=center;verticalAlign=middle;resizable=0;points=[];" parent="cZjuI6zAztRCHfJ284af-4" vertex="1" connectable="0">
          <mxGeometry x="-0.2222" relative="1" as="geometry">
            <mxPoint as="offset" />
          </mxGeometry>
        </mxCell>
        <mxCell id="cZjuI6zAztRCHfJ284af-6" value="N" style="edgeStyle=orthogonalEdgeStyle;rounded=0;orthogonalLoop=1;jettySize=auto;html=1;entryX=0;entryY=0.5;entryDx=0;entryDy=0;exitX=0;exitY=0.5;exitDx=0;exitDy=0;exitPerimeter=0;" parent="WIyWlLk6GJQsqaUBKTNV-1" source="cZjuI6zAztRCHfJ284af-7" target="cZjuI6zAztRCHfJ284af-3" edge="1">
          <mxGeometry relative="1" as="geometry" />
        </mxCell>
        <mxCell id="cZjuI6zAztRCHfJ284af-7" value="账号密码&lt;br&gt;是否正确？" style="strokeWidth=2;html=1;shape=mxgraph.flowchart.decision;whiteSpace=wrap;shadow=0;" parent="WIyWlLk6GJQsqaUBKTNV-1" vertex="1">
          <mxGeometry x="60" y="260" width="100" height="60" as="geometry" />
        </mxCell>
        <mxCell id="cZjuI6zAztRCHfJ284af-8" style="edgeStyle=orthogonalEdgeStyle;rounded=0;orthogonalLoop=1;jettySize=auto;html=1;entryX=0.5;entryY=0;entryDx=0;entryDy=0;" parent="WIyWlLk6GJQsqaUBKTNV-1" source="cZjuI6zAztRCHfJ284af-9" target="cZjuI6zAztRCHfJ284af-11" edge="1">
          <mxGeometry relative="1" as="geometry" />
        </mxCell>
        <mxCell id="cZjuI6zAztRCHfJ284af-9" value="主页面" style="rounded=1;whiteSpace=wrap;html=1;absoluteArcSize=1;arcSize=14;strokeWidth=2;shadow=0;" parent="WIyWlLk6GJQsqaUBKTNV-1" vertex="1">
          <mxGeometry x="206.25" y="270" width="60" height="40" as="geometry" />
        </mxCell>
        <mxCell id="cZjuI6zAztRCHfJ284af-10" style="edgeStyle=orthogonalEdgeStyle;rounded=0;orthogonalLoop=1;jettySize=auto;html=1;" parent="WIyWlLk6GJQsqaUBKTNV-1" source="cZjuI6zAztRCHfJ284af-11" target="cZjuI6zAztRCHfJ284af-13" edge="1">
          <mxGeometry relative="1" as="geometry" />
        </mxCell>
        <mxCell id="cZjuI6zAztRCHfJ284af-11" value="点击上传文件" style="rounded=1;whiteSpace=wrap;html=1;absoluteArcSize=1;arcSize=14;strokeWidth=2;shadow=0;" parent="WIyWlLk6GJQsqaUBKTNV-1" vertex="1">
          <mxGeometry x="195" y="330" width="82.5" height="40" as="geometry" />
        </mxCell>
        <mxCell id="cZjuI6zAztRCHfJ284af-12" style="edgeStyle=orthogonalEdgeStyle;rounded=0;orthogonalLoop=1;jettySize=auto;html=1;exitX=0.5;exitY=1;exitDx=0;exitDy=0;entryX=0.5;entryY=0;entryDx=0;entryDy=0;" parent="WIyWlLk6GJQsqaUBKTNV-1" source="cZjuI6zAztRCHfJ284af-13" target="cZjuI6zAztRCHfJ284af-15" edge="1">
          <mxGeometry relative="1" as="geometry" />
        </mxCell>
        <mxCell id="cZjuI6zAztRCHfJ284af-13" value="选择本地&lt;br&gt;文件上传" style="rounded=1;whiteSpace=wrap;html=1;absoluteArcSize=1;arcSize=14;strokeWidth=2;shadow=0;" parent="WIyWlLk6GJQsqaUBKTNV-1" vertex="1">
          <mxGeometry x="190" y="390" width="92.5" height="40" as="geometry" />
        </mxCell>
        <mxCell id="hVixConjpNxAwvwa23Td-0" style="edgeStyle=orthogonalEdgeStyle;rounded=0;orthogonalLoop=1;jettySize=auto;html=1;entryX=1;entryY=0.25;entryDx=0;entryDy=0;" edge="1" parent="WIyWlLk6GJQsqaUBKTNV-1" source="cZjuI6zAztRCHfJ284af-15" target="cZjuI6zAztRCHfJ284af-9">
          <mxGeometry relative="1" as="geometry">
            <Array as="points">
              <mxPoint x="305.05" y="470" />
              <mxPoint x="305.05" y="280" />
            </Array>
          </mxGeometry>
        </mxCell>
        <mxCell id="cZjuI6zAztRCHfJ284af-15" value="上传完成" style="rounded=1;whiteSpace=wrap;html=1;absoluteArcSize=1;arcSize=14;strokeWidth=2;shadow=0;" parent="WIyWlLk6GJQsqaUBKTNV-1" vertex="1">
          <mxGeometry x="190" y="450" width="92.5" height="40" as="geometry" />
        </mxCell>
        <mxCell id="cZjuI6zAztRCHfJ284af-16" style="edgeStyle=orthogonalEdgeStyle;rounded=0;orthogonalLoop=1;jettySize=auto;html=1;" parent="WIyWlLk6GJQsqaUBKTNV-1" source="cZjuI6zAztRCHfJ284af-17" target="cZjuI6zAztRCHfJ284af-19" edge="1">
          <mxGeometry relative="1" as="geometry" />
        </mxCell>
        <mxCell id="cZjuI6zAztRCHfJ284af-17" value="开始" style="strokeWidth=2;html=1;shape=mxgraph.flowchart.terminator;whiteSpace=wrap;strokeColor=#000000;shadow=0;" parent="WIyWlLk6GJQsqaUBKTNV-1" vertex="1">
          <mxGeometry x="405" y="125" width="70" height="40" as="geometry" />
        </mxCell>
        <mxCell id="cZjuI6zAztRCHfJ284af-18" style="edgeStyle=orthogonalEdgeStyle;rounded=0;orthogonalLoop=1;jettySize=auto;html=1;entryX=0.5;entryY=0;entryDx=0;entryDy=0;entryPerimeter=0;" parent="WIyWlLk6GJQsqaUBKTNV-1" source="cZjuI6zAztRCHfJ284af-19" target="cZjuI6zAztRCHfJ284af-23" edge="1">
          <mxGeometry relative="1" as="geometry" />
        </mxCell>
        <mxCell id="cZjuI6zAztRCHfJ284af-19" value="登录" style="rounded=1;whiteSpace=wrap;html=1;absoluteArcSize=1;arcSize=14;strokeWidth=2;shadow=0;" parent="WIyWlLk6GJQsqaUBKTNV-1" vertex="1">
          <mxGeometry x="410" y="185" width="60" height="40" as="geometry" />
        </mxCell>
        <mxCell id="cZjuI6zAztRCHfJ284af-20" style="edgeStyle=orthogonalEdgeStyle;rounded=0;orthogonalLoop=1;jettySize=auto;html=1;entryX=0;entryY=0.5;entryDx=0;entryDy=0;" parent="WIyWlLk6GJQsqaUBKTNV-1" source="cZjuI6zAztRCHfJ284af-23" target="cZjuI6zAztRCHfJ284af-25" edge="1">
          <mxGeometry relative="1" as="geometry" />
        </mxCell>
        <mxCell id="cZjuI6zAztRCHfJ284af-21" value="Y" style="edgeLabel;html=1;align=center;verticalAlign=middle;resizable=0;points=[];" parent="cZjuI6zAztRCHfJ284af-20" vertex="1" connectable="0">
          <mxGeometry x="-0.2222" relative="1" as="geometry">
            <mxPoint as="offset" />
          </mxGeometry>
        </mxCell>
        <mxCell id="cZjuI6zAztRCHfJ284af-22" value="N" style="edgeStyle=orthogonalEdgeStyle;rounded=0;orthogonalLoop=1;jettySize=auto;html=1;entryX=0;entryY=0.5;entryDx=0;entryDy=0;exitX=0;exitY=0.5;exitDx=0;exitDy=0;exitPerimeter=0;" parent="WIyWlLk6GJQsqaUBKTNV-1" source="cZjuI6zAztRCHfJ284af-23" target="cZjuI6zAztRCHfJ284af-19" edge="1">
          <mxGeometry relative="1" as="geometry" />
        </mxCell>
        <mxCell id="cZjuI6zAztRCHfJ284af-23" value="账号密码&lt;br&gt;是否正确？" style="strokeWidth=2;html=1;shape=mxgraph.flowchart.decision;whiteSpace=wrap;shadow=0;" parent="WIyWlLk6GJQsqaUBKTNV-1" vertex="1">
          <mxGeometry x="390" y="250" width="100" height="60" as="geometry" />
        </mxCell>
        <mxCell id="cZjuI6zAztRCHfJ284af-25" value="主页面" style="rounded=1;whiteSpace=wrap;html=1;absoluteArcSize=1;arcSize=14;strokeWidth=2;shadow=0;" parent="WIyWlLk6GJQsqaUBKTNV-1" vertex="1">
          <mxGeometry x="530.25" y="260" width="60" height="40" as="geometry" />
        </mxCell>
        <mxCell id="cZjuI6zAztRCHfJ284af-26" style="edgeStyle=orthogonalEdgeStyle;rounded=0;orthogonalLoop=1;jettySize=auto;html=1;exitX=0.5;exitY=1;exitDx=0;exitDy=0;" parent="WIyWlLk6GJQsqaUBKTNV-1" source="cZjuI6zAztRCHfJ284af-25" target="cZjuI6zAztRCHfJ284af-29" edge="1">
          <mxGeometry relative="1" as="geometry">
            <mxPoint x="560.35" y="360" as="sourcePoint" />
          </mxGeometry>
        </mxCell>
        <mxCell id="cZjuI6zAztRCHfJ284af-52" style="edgeStyle=orthogonalEdgeStyle;rounded=0;orthogonalLoop=1;jettySize=auto;html=1;entryX=0.5;entryY=0;entryDx=0;entryDy=0;" parent="WIyWlLk6GJQsqaUBKTNV-1" source="cZjuI6zAztRCHfJ284af-29" target="cZjuI6zAztRCHfJ284af-48" edge="1">
          <mxGeometry relative="1" as="geometry" />
        </mxCell>
        <mxCell id="cZjuI6zAztRCHfJ284af-29" value="点击分享图标" style="rounded=1;whiteSpace=wrap;html=1;absoluteArcSize=1;arcSize=14;strokeWidth=2;shadow=0;" parent="WIyWlLk6GJQsqaUBKTNV-1" vertex="1">
          <mxGeometry x="514" y="320" width="92.5" height="40" as="geometry" />
        </mxCell>
        <mxCell id="hVixConjpNxAwvwa23Td-1" style="edgeStyle=orthogonalEdgeStyle;rounded=0;orthogonalLoop=1;jettySize=auto;html=1;entryX=1;entryY=0.25;entryDx=0;entryDy=0;" edge="1" parent="WIyWlLk6GJQsqaUBKTNV-1" source="cZjuI6zAztRCHfJ284af-31" target="cZjuI6zAztRCHfJ284af-25">
          <mxGeometry relative="1" as="geometry">
            <Array as="points">
              <mxPoint x="630.25" y="460" />
              <mxPoint x="630.25" y="270" />
            </Array>
          </mxGeometry>
        </mxCell>
        <mxCell id="cZjuI6zAztRCHfJ284af-31" value="分享完成" style="rounded=1;whiteSpace=wrap;html=1;absoluteArcSize=1;arcSize=14;strokeWidth=2;shadow=0;" parent="WIyWlLk6GJQsqaUBKTNV-1" vertex="1">
          <mxGeometry x="514" y="440" width="92.5" height="40" as="geometry" />
        </mxCell>
        <mxCell id="cZjuI6zAztRCHfJ284af-32" style="edgeStyle=orthogonalEdgeStyle;rounded=0;orthogonalLoop=1;jettySize=auto;html=1;" parent="WIyWlLk6GJQsqaUBKTNV-1" source="cZjuI6zAztRCHfJ284af-33" target="cZjuI6zAztRCHfJ284af-35" edge="1">
          <mxGeometry relative="1" as="geometry" />
        </mxCell>
        <mxCell id="cZjuI6zAztRCHfJ284af-33" value="开始" style="strokeWidth=2;html=1;shape=mxgraph.flowchart.terminator;whiteSpace=wrap;strokeColor=#000000;shadow=0;" parent="WIyWlLk6GJQsqaUBKTNV-1" vertex="1">
          <mxGeometry x="695" y="160" width="70" height="40" as="geometry" />
        </mxCell>
        <mxCell id="cZjuI6zAztRCHfJ284af-34" style="edgeStyle=orthogonalEdgeStyle;rounded=0;orthogonalLoop=1;jettySize=auto;html=1;entryX=0.5;entryY=0;entryDx=0;entryDy=0;entryPerimeter=0;" parent="WIyWlLk6GJQsqaUBKTNV-1" source="cZjuI6zAztRCHfJ284af-35" target="cZjuI6zAztRCHfJ284af-39" edge="1">
          <mxGeometry relative="1" as="geometry" />
        </mxCell>
        <mxCell id="cZjuI6zAztRCHfJ284af-35" value="登录" style="rounded=1;whiteSpace=wrap;html=1;absoluteArcSize=1;arcSize=14;strokeWidth=2;shadow=0;" parent="WIyWlLk6GJQsqaUBKTNV-1" vertex="1">
          <mxGeometry x="700" y="220" width="60" height="40" as="geometry" />
        </mxCell>
        <mxCell id="cZjuI6zAztRCHfJ284af-36" style="edgeStyle=orthogonalEdgeStyle;rounded=0;orthogonalLoop=1;jettySize=auto;html=1;" parent="WIyWlLk6GJQsqaUBKTNV-1" source="cZjuI6zAztRCHfJ284af-39" edge="1">
          <mxGeometry relative="1" as="geometry">
            <mxPoint x="840" y="310" as="targetPoint" />
          </mxGeometry>
        </mxCell>
        <mxCell id="cZjuI6zAztRCHfJ284af-37" value="Y" style="edgeLabel;html=1;align=center;verticalAlign=middle;resizable=0;points=[];" parent="cZjuI6zAztRCHfJ284af-36" vertex="1" connectable="0">
          <mxGeometry x="-0.2222" relative="1" as="geometry">
            <mxPoint as="offset" />
          </mxGeometry>
        </mxCell>
        <mxCell id="cZjuI6zAztRCHfJ284af-38" value="N" style="edgeStyle=orthogonalEdgeStyle;rounded=0;orthogonalLoop=1;jettySize=auto;html=1;entryX=0;entryY=0.5;entryDx=0;entryDy=0;exitX=0;exitY=0.5;exitDx=0;exitDy=0;exitPerimeter=0;" parent="WIyWlLk6GJQsqaUBKTNV-1" source="cZjuI6zAztRCHfJ284af-39" target="cZjuI6zAztRCHfJ284af-35" edge="1">
          <mxGeometry relative="1" as="geometry" />
        </mxCell>
        <mxCell id="cZjuI6zAztRCHfJ284af-39" value="账号密码&lt;br&gt;是否正确？" style="strokeWidth=2;html=1;shape=mxgraph.flowchart.decision;whiteSpace=wrap;shadow=0;" parent="WIyWlLk6GJQsqaUBKTNV-1" vertex="1">
          <mxGeometry x="680" y="280" width="100" height="60" as="geometry" />
        </mxCell>
        <mxCell id="cZjuI6zAztRCHfJ284af-55" style="edgeStyle=orthogonalEdgeStyle;rounded=0;orthogonalLoop=1;jettySize=auto;html=1;entryX=0.5;entryY=0;entryDx=0;entryDy=0;" parent="WIyWlLk6GJQsqaUBKTNV-1" source="cZjuI6zAztRCHfJ284af-41" target="cZjuI6zAztRCHfJ284af-54" edge="1">
          <mxGeometry relative="1" as="geometry" />
        </mxCell>
        <mxCell id="cZjuI6zAztRCHfJ284af-41" value="主页面" style="rounded=1;whiteSpace=wrap;html=1;absoluteArcSize=1;arcSize=14;strokeWidth=2;shadow=0;" parent="WIyWlLk6GJQsqaUBKTNV-1" vertex="1">
          <mxGeometry x="843.12" y="290" width="60" height="40" as="geometry" />
        </mxCell>
        <mxCell id="cZjuI6zAztRCHfJ284af-42" style="edgeStyle=orthogonalEdgeStyle;rounded=0;orthogonalLoop=1;jettySize=auto;html=1;" parent="WIyWlLk6GJQsqaUBKTNV-1" source="cZjuI6zAztRCHfJ284af-43" target="cZjuI6zAztRCHfJ284af-45" edge="1">
          <mxGeometry relative="1" as="geometry" />
        </mxCell>
        <mxCell id="cZjuI6zAztRCHfJ284af-43" value="点击编辑" style="rounded=1;whiteSpace=wrap;html=1;absoluteArcSize=1;arcSize=14;strokeWidth=2;shadow=0;" parent="WIyWlLk6GJQsqaUBKTNV-1" vertex="1">
          <mxGeometry x="831.88" y="410" width="82.5" height="40" as="geometry" />
        </mxCell>
        <mxCell id="cZjuI6zAztRCHfJ284af-44" style="edgeStyle=orthogonalEdgeStyle;rounded=0;orthogonalLoop=1;jettySize=auto;html=1;exitX=0.5;exitY=1;exitDx=0;exitDy=0;entryX=0.5;entryY=0;entryDx=0;entryDy=0;" parent="WIyWlLk6GJQsqaUBKTNV-1" source="cZjuI6zAztRCHfJ284af-45" edge="1">
          <mxGeometry relative="1" as="geometry">
            <mxPoint x="873.12" y="535" as="targetPoint" />
          </mxGeometry>
        </mxCell>
        <mxCell id="cZjuI6zAztRCHfJ284af-45" value="修改文件私密程度" style="rounded=1;whiteSpace=wrap;html=1;absoluteArcSize=1;arcSize=14;strokeWidth=2;shadow=0;" parent="WIyWlLk6GJQsqaUBKTNV-1" vertex="1">
          <mxGeometry x="820" y="475" width="106.25" height="40" as="geometry" />
        </mxCell>
        <mxCell id="hVixConjpNxAwvwa23Td-2" style="edgeStyle=orthogonalEdgeStyle;rounded=0;orthogonalLoop=1;jettySize=auto;html=1;exitX=1;exitY=0.5;exitDx=0;exitDy=0;entryX=1;entryY=0.5;entryDx=0;entryDy=0;" edge="1" parent="WIyWlLk6GJQsqaUBKTNV-1" source="cZjuI6zAztRCHfJ284af-47" target="cZjuI6zAztRCHfJ284af-41">
          <mxGeometry relative="1" as="geometry">
            <Array as="points">
              <mxPoint x="950" y="555" />
              <mxPoint x="950" y="310" />
            </Array>
          </mxGeometry>
        </mxCell>
        <mxCell id="cZjuI6zAztRCHfJ284af-47" value="编辑完成" style="rounded=1;whiteSpace=wrap;html=1;absoluteArcSize=1;arcSize=14;strokeWidth=2;shadow=0;" parent="WIyWlLk6GJQsqaUBKTNV-1" vertex="1">
          <mxGeometry x="826.86" y="535" width="92.5" height="40" as="geometry" />
        </mxCell>
        <mxCell id="cZjuI6zAztRCHfJ284af-53" style="edgeStyle=orthogonalEdgeStyle;rounded=0;orthogonalLoop=1;jettySize=auto;html=1;entryX=0.5;entryY=0;entryDx=0;entryDy=0;" parent="WIyWlLk6GJQsqaUBKTNV-1" source="cZjuI6zAztRCHfJ284af-48" target="cZjuI6zAztRCHfJ284af-31" edge="1">
          <mxGeometry relative="1" as="geometry" />
        </mxCell>
        <mxCell id="cZjuI6zAztRCHfJ284af-48" value="生成分享链接" style="rounded=1;whiteSpace=wrap;html=1;absoluteArcSize=1;arcSize=14;strokeWidth=2;shadow=0;" parent="WIyWlLk6GJQsqaUBKTNV-1" vertex="1">
          <mxGeometry x="514" y="380" width="92.5" height="40" as="geometry" />
        </mxCell>
        <mxCell id="cZjuI6zAztRCHfJ284af-56" style="edgeStyle=orthogonalEdgeStyle;rounded=0;orthogonalLoop=1;jettySize=auto;html=1;" parent="WIyWlLk6GJQsqaUBKTNV-1" source="cZjuI6zAztRCHfJ284af-54" target="cZjuI6zAztRCHfJ284af-43" edge="1">
          <mxGeometry relative="1" as="geometry" />
        </mxCell>
        <mxCell id="cZjuI6zAztRCHfJ284af-54" value="勾选文件" style="rounded=1;whiteSpace=wrap;html=1;absoluteArcSize=1;arcSize=14;strokeWidth=2;shadow=0;" parent="WIyWlLk6GJQsqaUBKTNV-1" vertex="1">
          <mxGeometry x="831.86" y="350" width="82.5" height="40" as="geometry" />
        </mxCell>
      </root>
    </mxGraphModel>
  </diagram>
</mxfile>
